<?xml version="1.0" encoding="utf-8" standalone="no"?>
<!DOCTYPE svg PUBLIC "-//W3C//DTD SVG 1.1//EN"
  "http://www.w3.org/Graphics/SVG/1.1/DTD/svg11.dtd">
<svg xmlns:xlink="http://www.w3.org/1999/xlink" width="572.564157pt" height="356.800219pt" viewBox="0 0 572.564157 356.800219" xmlns="http://www.w3.org/2000/svg" version="1.1">
 <metadata>
  <rdf:RDF xmlns:dc="http://purl.org/dc/elements/1.1/" xmlns:cc="http://creativecommons.org/ns#" xmlns:rdf="http://www.w3.org/1999/02/22-rdf-syntax-ns#">
   <cc:Work>
    <dc:type rdf:resource="http://purl.org/dc/dcmitype/StillImage"/>
    <dc:date>2026-07-15T10:54:26.485752</dc:date>
    <dc:format>image/svg+xml</dc:format>
    <dc:creator>
     <cc:Agent>
      <dc:title>Matplotlib v3.7.1, https://matplotlib.org/</dc:title>
     </cc:Agent>
    </dc:creator>
   </cc:Work>
  </rdf:RDF>
 </metadata>
 <defs>
  <style type="text/css">*{stroke-linejoin: round; stroke-linecap: butt}</style>
 </defs>
 <g id="figure_1">
  <g id="patch_1">
   <path d="M 0 356.800219 
L 572.564157 356.800219 
L 572.564157 0 
L 0 0 
z
" style="fill: #ffffff"/>
  </g>
  <g id="axes_1">
   <g id="patch_2">
    <path d="M 35.24625 324.691 
L 561.767586 324.691 
L 561.767586 29.382 
L 35.24625 29.382 
z
" style="fill: #ffffff"/>
   </g>
   <g id="PolyCollection_1">
    <path d="M 59.179038 311.267864 
L 59.179038 311.267864 
L 79.990158 277.340048 
L 100.801278 254.063894 
L 121.612398 268.529492 
L 142.423518 267.839863 
L 163.234638 264.216896 
L 184.045758 255.169275 
L 204.856878 245.833879 
L 225.667998 235.357073 
L 246.479118 226.059911 
L 267.290238 209.962194 
L 288.101358 177.401366 
L 308.912478 173.850494 
L 329.723598 137.507433 
L 350.534718 126.643387 
L 371.345838 102.282677 
L 392.156958 104.147797 
L 412.968078 95.899869 
L 433.779198 96.853177 
L 454.590318 91.045288 
L 475.401438 93.56061 
L 496.212558 88.936127 
L 517.023678 86.340089 
L 537.834798 90.972267 
L 537.834798 42.805136 
L 537.834798 42.805136 
L 517.023678 58.586004 
L 496.212558 65.646359 
L 475.401438 70.796571 
L 454.590318 67.550952 
L 433.779198 62.778161 
L 412.968078 59.235489 
L 392.156958 77.953277 
L 371.345838 76.03437 
L 350.534718 101.351242 
L 329.723598 113.142657 
L 308.912478 145.59872 
L 288.101358 136.323951 
L 267.290238 189.926484 
L 246.479118 207.132471 
L 225.667998 216.719733 
L 204.856878 228.797593 
L 184.045758 238.160574 
L 163.234638 239.225608 
L 142.423518 255.196777 
L 121.612398 254.103586 
L 100.801278 237.619754 
L 79.990158 264.890293 
L 59.179038 311.267864 
z
" clip-path="url(#p7f44047d67)" style="fill: #1f77b4; fill-opacity: 0.25"/>
   </g>
   <g id="matplotlib.axis_1">
    <g id="xtick_1">
     <g id="line2d_1">
      <path d="M 59.179038 324.691 
L 59.179038 29.382 
" clip-path="url(#p7f44047d67)" style="fill: none; stroke: #b0b0b0; stroke-opacity: 0.3; stroke-width: 0.8; stroke-linecap: square"/>
     </g>
     <g id="line2d_2">
      <defs>
       <path id="m0e795aa089" d="M 0 0 
L 0 3.5 
" style="stroke: #000000; stroke-width: 0.8"/>
      </defs>
      <g>
       <use xlink:href="#m0e795aa089" x="59.179038" y="324.691" style="stroke: #000000; stroke-width: 0.8"/>
      </g>
     </g>
     <g id="text_1">
      <text style="font: 7px 'Arial'; text-anchor: middle" x="59.179038" y="336.701469" transform="rotate(-0 59.179038 336.701469)">0</text>
     </g>
    </g>
    <g id="xtick_2">
     <g id="line2d_3">
      <path d="M 121.479014 324.691 
L 121.479014 29.382 
" clip-path="url(#p7f44047d67)" style="fill: none; stroke: #b0b0b0; stroke-opacity: 0.3; stroke-width: 0.8; stroke-linecap: square"/>
     </g>
     <g id="line2d_4">
      <g>
       <use xlink:href="#m0e795aa089" x="121.479014" y="324.691" style="stroke: #000000; stroke-width: 0.8"/>
      </g>
     </g>
     <g id="text_2">
      <text style="font: 7px 'Arial'; text-anchor: middle" x="121.479014" y="336.701469" transform="rotate(-0 121.479014 336.701469)">500</text>
     </g>
    </g>
    <g id="xtick_3">
     <g id="line2d_5">
      <path d="M 183.77899 324.691 
L 183.77899 29.382 
" clip-path="url(#p7f44047d67)" style="fill: none; stroke: #b0b0b0; stroke-opacity: 0.3; stroke-width: 0.8; stroke-linecap: square"/>
     </g>
     <g id="line2d_6">
      <g>
       <use xlink:href="#m0e795aa089" x="183.77899" y="324.691" style="stroke: #000000; stroke-width: 0.8"/>
      </g>
     </g>
     <g id="text_3">
      <text style="font: 7px 'Arial'; text-anchor: middle" x="183.77899" y="336.701469" transform="rotate(-0 183.77899 336.701469)">1000</text>
     </g>
    </g>
    <g id="xtick_4">
     <g id="line2d_7">
      <path d="M 246.078965 324.691 
L 246.078965 29.382 
" clip-path="url(#p7f44047d67)" style="fill: none; stroke: #b0b0b0; stroke-opacity: 0.3; stroke-width: 0.8; stroke-linecap: square"/>
     </g>
     <g id="line2d_8">
      <g>
       <use xlink:href="#m0e795aa089" x="246.078965" y="324.691" style="stroke: #000000; stroke-width: 0.8"/>
      </g>
     </g>
     <g id="text_4">
      <text style="font: 7px 'Arial'; text-anchor: middle" x="246.078965" y="336.701469" transform="rotate(-0 246.078965 336.701469)">1500</text>
     </g>
    </g>
    <g id="xtick_5">
     <g id="line2d_9">
      <path d="M 308.378941 324.691 
L 308.378941 29.382 
" clip-path="url(#p7f44047d67)" style="fill: none; stroke: #b0b0b0; stroke-opacity: 0.3; stroke-width: 0.8; stroke-linecap: square"/>
     </g>
     <g id="line2d_10">
      <g>
       <use xlink:href="#m0e795aa089" x="308.378941" y="324.691" style="stroke: #000000; stroke-width: 0.8"/>
      </g>
     </g>
     <g id="text_5">
      <text style="font: 7px 'Arial'; text-anchor: middle" x="308.378941" y="336.701469" transform="rotate(-0 308.378941 336.701469)">2000</text>
     </g>
    </g>
    <g id="xtick_6">
     <g id="line2d_11">
      <path d="M 370.678917 324.691 
L 370.678917 29.382 
" clip-path="url(#p7f44047d67)" style="fill: none; stroke: #b0b0b0; stroke-opacity: 0.3; stroke-width: 0.8; stroke-linecap: square"/>
     </g>
     <g id="line2d_12">
      <g>
       <use xlink:href="#m0e795aa089" x="370.678917" y="324.691" style="stroke: #000000; stroke-width: 0.8"/>
      </g>
     </g>
     <g id="text_6">
      <text style="font: 7px 'Arial'; text-anchor: middle" x="370.678917" y="336.701469" transform="rotate(-0 370.678917 336.701469)">2500</text>
     </g>
    </g>
    <g id="xtick_7">
     <g id="line2d_13">
      <path d="M 432.978893 324.691 
L 432.978893 29.382 
" clip-path="url(#p7f44047d67)" style="fill: none; stroke: #b0b0b0; stroke-opacity: 0.3; stroke-width: 0.8; stroke-linecap: square"/>
     </g>
     <g id="line2d_14">
      <g>
       <use xlink:href="#m0e795aa089" x="432.978893" y="324.691" style="stroke: #000000; stroke-width: 0.8"/>
      </g>
     </g>
     <g id="text_7">
      <text style="font: 7px 'Arial'; text-anchor: middle" x="432.978893" y="336.701469" transform="rotate(-0 432.978893 336.701469)">3000</text>
     </g>
    </g>
    <g id="xtick_8">
     <g id="line2d_15">
      <path d="M 495.278869 324.691 
L 495.278869 29.382 
" clip-path="url(#p7f44047d67)" style="fill: none; stroke: #b0b0b0; stroke-opacity: 0.3; stroke-width: 0.8; stroke-linecap: square"/>
     </g>
     <g id="line2d_16">
      <g>
       <use xlink:href="#m0e795aa089" x="495.278869" y="324.691" style="stroke: #000000; stroke-width: 0.8"/>
      </g>
     </g>
     <g id="text_8">
      <text style="font: 7px 'Arial'; text-anchor: middle" x="495.278869" y="336.701469" transform="rotate(-0 495.278869 336.701469)">3500</text>
     </g>
    </g>
    <g id="xtick_9">
     <g id="line2d_17">
      <path d="M 557.578844 324.691 
L 557.578844 29.382 
" clip-path="url(#p7f44047d67)" style="fill: none; stroke: #b0b0b0; stroke-opacity: 0.3; stroke-width: 0.8; stroke-linecap: square"/>
     </g>
     <g id="line2d_18">
      <g>
       <use xlink:href="#m0e795aa089" x="557.578844" y="324.691" style="stroke: #000000; stroke-width: 0.8"/>
      </g>
     </g>
     <g id="text_9">
      <text style="font: 7px 'Arial'; text-anchor: middle" x="557.578844" y="336.701469" transform="rotate(-0 557.578844 336.701469)">4000</text>
     </g>
    </g>
    <g id="text_10">
     <text style="font: 8px 'Arial'; text-anchor: middle" x="298.506918" y="347.916469" transform="rotate(-0 298.506918 347.916469)">Time from start (ms)</text>
    </g>
   </g>
   <g id="matplotlib.axis_2">
    <g id="ytick_1">
     <g id="line2d_19">
      <path d="M 35.24625 311.267864 
L 561.767586 311.267864 
" clip-path="url(#p7f44047d67)" style="fill: none; stroke: #b0b0b0; stroke-opacity: 0.3; stroke-width: 0.8; stroke-linecap: square"/>
     </g>
     <g id="line2d_20">
      <defs>
       <path id="med10f59b8d" d="M 0 0 
L -3.5 0 
" style="stroke: #000000; stroke-width: 0.8"/>
      </defs>
      <g>
       <use xlink:href="#med10f59b8d" x="35.24625" y="311.267864" style="stroke: #000000; stroke-width: 0.8"/>
      </g>
     </g>
     <g id="text_11">
      <text style="font: 7px 'Arial'; text-anchor: end" x="28.24625" y="313.773098" transform="rotate(-0 28.24625 313.773098)">0.2</text>
     </g>
    </g>
    <g id="ytick_2">
     <g id="line2d_21">
      <path d="M 35.24625 261.502002 
L 561.767586 261.502002 
" clip-path="url(#p7f44047d67)" style="fill: none; stroke: #b0b0b0; stroke-opacity: 0.3; stroke-width: 0.8; stroke-linecap: square"/>
     </g>
     <g id="line2d_22">
      <g>
       <use xlink:href="#med10f59b8d" x="35.24625" y="261.502002" style="stroke: #000000; stroke-width: 0.8"/>
      </g>
     </g>
     <g id="text_12">
      <text style="font: 7px 'Arial'; text-anchor: end" x="28.24625" y="264.007236" transform="rotate(-0 28.24625 264.007236)">0.3</text>
     </g>
    </g>
    <g id="ytick_3">
     <g id="line2d_23">
      <path d="M 35.24625 211.73614 
L 561.767586 211.73614 
" clip-path="url(#p7f44047d67)" style="fill: none; stroke: #b0b0b0; stroke-opacity: 0.3; stroke-width: 0.8; stroke-linecap: square"/>
     </g>
     <g id="line2d_24">
      <g>
       <use xlink:href="#med10f59b8d" x="35.24625" y="211.73614" style="stroke: #000000; stroke-width: 0.8"/>
      </g>
     </g>
     <g id="text_13">
      <text style="font: 7px 'Arial'; text-anchor: end" x="28.24625" y="214.241374" transform="rotate(-0 28.24625 214.241374)">0.4</text>
     </g>
    </g>
    <g id="ytick_4">
     <g id="line2d_25">
      <path d="M 35.24625 161.970278 
L 561.767586 161.970278 
" clip-path="url(#p7f44047d67)" style="fill: none; stroke: #b0b0b0; stroke-opacity: 0.3; stroke-width: 0.8; stroke-linecap: square"/>
     </g>
     <g id="line2d_26">
      <g>
       <use xlink:href="#med10f59b8d" x="35.24625" y="161.970278" style="stroke: #000000; stroke-width: 0.8"/>
      </g>
     </g>
     <g id="text_14">
      <text style="font: 7px 'Arial'; text-anchor: end" x="28.24625" y="164.475512" transform="rotate(-0 28.24625 164.475512)">0.5</text>
     </g>
    </g>
    <g id="ytick_5">
     <g id="line2d_27">
      <path d="M 35.24625 112.204416 
L 561.767586 112.204416 
" clip-path="url(#p7f44047d67)" style="fill: none; stroke: #b0b0b0; stroke-opacity: 0.3; stroke-width: 0.8; stroke-linecap: square"/>
     </g>
     <g id="line2d_28">
      <g>
       <use xlink:href="#med10f59b8d" x="35.24625" y="112.204416" style="stroke: #000000; stroke-width: 0.8"/>
      </g>
     </g>
     <g id="text_15">
      <text style="font: 7px 'Arial'; text-anchor: end" x="28.24625" y="114.70965" transform="rotate(-0 28.24625 114.70965)">0.6</text>
     </g>
    </g>
    <g id="ytick_6">
     <g id="line2d_29">
      <path d="M 35.24625 62.438554 
L 561.767586 62.438554 
" clip-path="url(#p7f44047d67)" style="fill: none; stroke: #b0b0b0; stroke-opacity: 0.3; stroke-width: 0.8; stroke-linecap: square"/>
     </g>
     <g id="line2d_30">
      <g>
       <use xlink:href="#med10f59b8d" x="35.24625" y="62.438554" style="stroke: #000000; stroke-width: 0.8"/>
      </g>
     </g>
     <g id="text_16">
      <text style="font: 7px 'Arial'; text-anchor: end" x="28.24625" y="64.943788" transform="rotate(-0 28.24625 64.943788)">0.7</text>
     </g>
    </g>
    <g id="text_17">
     <text style="font: 8px 'Arial'; text-anchor: middle" x="12.92625" y="177.0365" transform="rotate(-90 12.92625 177.0365)">Prior Confidence Index</text>
    </g>
   </g>
   <g id="line2d_31">
    <path d="M 59.179038 311.267864 
L 79.990158 271.11517 
L 100.801278 245.841824 
L 121.612398 261.316539 
L 142.423518 261.51832 
L 163.234638 251.721252 
L 184.045758 246.664924 
L 204.856878 237.315736 
L 225.667998 226.038403 
L 246.479118 216.596191 
L 267.290238 199.944339 
L 288.101358 156.862658 
L 308.912478 159.724607 
L 329.723598 125.325045 
L 350.534718 113.997315 
L 371.345838 89.158523 
L 392.156958 91.050537 
L 412.968078 77.567679 
L 433.779198 79.815669 
L 454.590318 79.29812 
L 475.401438 82.17859 
L 496.212558 77.291243 
L 517.023678 72.463047 
L 537.834798 66.888701 
" clip-path="url(#p7f44047d67)" style="fill: none; stroke: #1f77b4; stroke-width: 2.5; stroke-linecap: square"/>
   </g>
   <g id="line2d_32">
    <path d="M 299.999875 324.691 
L 299.999875 29.382 
" clip-path="url(#p7f44047d67)" style="fill: none; stroke: #9467bd; stroke-width: 2; stroke-linecap: square"/>
   </g>
   <g id="patch_3">
    <path d="M 35.24625 324.691 
L 35.24625 29.382 
" style="fill: none; stroke: #000000; stroke-width: 0.8; stroke-linejoin: miter; stroke-linecap: square"/>
   </g>
   <g id="patch_4">
    <path d="M 561.767586 324.691 
L 561.767586 29.382 
" style="fill: none; stroke: #000000; stroke-width: 0.8; stroke-linejoin: miter; stroke-linecap: square"/>
   </g>
   <g id="patch_5">
    <path d="M 35.24625 324.691 
L 561.767586 324.691 
" style="fill: none; stroke: #000000; stroke-width: 0.8; stroke-linejoin: miter; stroke-linecap: square"/>
   </g>
   <g id="patch_6">
    <path d="M 35.24625 29.382 
L 561.767586 29.382 
" style="fill: none; stroke: #000000; stroke-width: 0.8; stroke-linejoin: miter; stroke-linecap: square"/>
   </g>
   <g id="text_18">
    <text style="font: 9px 'Arial'" transform="translate(250.984106 13.757344)">Monkey 1 – AI Obstacle</text>
    <text style="font: 9px 'Arial'" transform="translate(251.652778 23.382)">α vs time from trial start</text>
   </g>
   <g id="legend_1">
    <g id="patch_7">
     <path d="M 41.54625 74.9895 
L 184.390312 74.9895 
Q 186.190313 74.9895 186.190313 73.1895 
L 186.190313 35.682 
Q 186.190313 33.882 184.390312 33.882 
L 41.54625 33.882 
Q 39.74625 33.882 39.74625 35.682 
L 39.74625 73.1895 
Q 39.74625 74.9895 41.54625 74.9895 
z
" style="fill: #ffffff; opacity: 0.8; stroke: #cccccc; stroke-linejoin: miter"/>
    </g>
    <g id="patch_8">
     <path d="M 43.34625 43.924031 
L 61.34625 43.924031 
L 61.34625 37.624031 
L 43.34625 37.624031 
z
" style="fill: #1f77b4; fill-opacity: 0.25"/>
    </g>
    <g id="text_19">
     <text style="font: 9px 'Arial'; text-anchor: start" x="68.54625" y="43.924031" transform="rotate(-0 68.54625 43.924031)">Across-trials 95% CI</text>
    </g>
    <g id="line2d_33">
     <path d="M 43.34625 53.504812 
L 52.34625 53.504812 
L 61.34625 53.504812 
" style="fill: none; stroke: #1f77b4; stroke-width: 2.5; stroke-linecap: square"/>
    </g>
    <g id="text_20">
     <text style="font: 9px 'Arial'; text-anchor: start" x="68.54625" y="56.654812" transform="rotate(-0 68.54625 56.654812)">Across-trials mean</text>
    </g>
    <g id="line2d_34">
     <path d="M 43.34625 66.345281 
L 52.34625 66.345281 
L 61.34625 66.345281 
" style="fill: none; stroke: #9467bd; stroke-width: 2; stroke-linecap: square"/>
    </g>
    <g id="text_21">
     <text style="font: 9px 'Arial'; text-anchor: start" x="68.54625" y="69.495281" transform="rotate(-0 68.54625 69.495281)">Closest to obstacle (median)</text>
    </g>
   </g>
  </g>
 </g>
 <defs>
  <clipPath id="p7f44047d67">
   <rect x="35.24625" y="29.382" width="526.521336" height="295.309"/>
  </clipPath>
 </defs>
</svg>
