<?xml version="1.0" encoding="utf-8" standalone="no"?>
<!DOCTYPE svg PUBLIC "-//W3C//DTD SVG 1.1//EN"
  "http://www.w3.org/Graphics/SVG/1.1/DTD/svg11.dtd">
<svg xmlns:xlink="http://www.w3.org/1999/xlink" width="573.15625pt" height="356.800219pt" viewBox="0 0 573.15625 356.800219" xmlns="http://www.w3.org/2000/svg" version="1.1">
 <metadata>
  <rdf:RDF xmlns:dc="http://purl.org/dc/elements/1.1/" xmlns:cc="http://creativecommons.org/ns#" xmlns:rdf="http://www.w3.org/1999/02/22-rdf-syntax-ns#">
   <cc:Work>
    <dc:type rdf:resource="http://purl.org/dc/dcmitype/StillImage"/>
    <dc:date>2026-07-15T10:55:00.369848</dc:date>
    <dc:format>image/svg+xml</dc:format>
    <dc:creator>
     <cc:Agent>
      <dc:title>Matplotlib v3.7.1, https://matplotlib.org/</dc:title>
     </cc:Agent>
    </dc:creator>
   </cc:Work>
  </rdf:RDF>
 </metadata>
 <defs>
  <style type="text/css">*{stroke-linejoin: round; stroke-linecap: butt}</style>
 </defs>
 <g id="figure_1">
  <g id="patch_1">
   <path d="M 0 356.800219 
L 573.15625 356.800219 
L 573.15625 0 
L 0 0 
z
" style="fill: #ffffff"/>
  </g>
  <g id="axes_1">
   <g id="patch_2">
    <path d="M 35.24625 324.691 
L 565.95625 324.691 
L 565.95625 29.382 
L 35.24625 29.382 
z
" style="fill: #ffffff"/>
   </g>
   <g id="PolyCollection_1">
    <path d="M 59.369432 311.267864 
L 59.369432 311.267864 
L 80.346112 285.187624 
L 101.322792 240.777358 
L 122.299471 257.277368 
L 143.276151 259.430021 
L 164.252831 248.213508 
L 185.229511 217.618902 
L 206.206191 264.460372 
L 227.182871 227.912853 
L 248.15955 230.965242 
L 269.13623 206.598084 
L 290.11291 183.464585 
L 311.08959 161.209171 
L 332.06627 136.408759 
L 353.04295 128.097656 
L 374.019629 183.067791 
L 394.996309 133.942314 
L 415.972989 126.030793 
L 436.949669 108.869264 
L 457.926349 112.315432 
L 478.903029 113.028556 
L 499.879708 120.30091 
L 520.856388 129.393772 
L 541.833068 151.967475 
L 541.833068 42.805136 
L 541.833068 42.805136 
L 520.856388 98.058259 
L 499.879708 93.818347 
L 478.903029 86.7138 
L 457.926349 85.781663 
L 436.949669 80.528633 
L 415.972989 96.318602 
L 394.996309 100.538078 
L 374.019629 94.117644 
L 353.04295 96.253702 
L 332.06627 105.365108 
L 311.08959 132.280532 
L 290.11291 155.430717 
L 269.13623 179.556348 
L 248.15955 208.444509 
L 227.182871 200.782641 
L 206.206191 202.911269 
L 185.229511 188.997952 
L 164.252831 228.694158 
L 143.276151 243.191471 
L 122.299471 238.690717 
L 101.322792 219.253506 
L 80.346112 271.406369 
L 59.369432 311.267864 
z
" clip-path="url(#p840652d106)" style="fill: #1f77b4; fill-opacity: 0.25"/>
   </g>
   <g id="matplotlib.axis_1">
    <g id="xtick_1">
     <g id="line2d_1">
      <path d="M 59.369432 324.691 
L 59.369432 29.382 
" clip-path="url(#p840652d106)" style="fill: none; stroke: #b0b0b0; stroke-opacity: 0.3; stroke-width: 0.8; stroke-linecap: square"/>
     </g>
     <g id="line2d_2">
      <defs>
       <path id="me2e944a599" d="M 0 0 
L 0 3.5 
" style="stroke: #000000; stroke-width: 0.8"/>
      </defs>
      <g>
       <use xlink:href="#me2e944a599" x="59.369432" y="324.691" style="stroke: #000000; stroke-width: 0.8"/>
      </g>
     </g>
     <g id="text_1">
      <text style="font: 7px 'Arial'; text-anchor: middle" x="59.369432" y="336.701469" transform="rotate(-0 59.369432 336.701469)">0</text>
     </g>
    </g>
    <g id="xtick_2">
     <g id="line2d_3">
      <path d="M 119.369574 324.691 
L 119.369574 29.382 
" clip-path="url(#p840652d106)" style="fill: none; stroke: #b0b0b0; stroke-opacity: 0.3; stroke-width: 0.8; stroke-linecap: square"/>
     </g>
     <g id="line2d_4">
      <g>
       <use xlink:href="#me2e944a599" x="119.369574" y="324.691" style="stroke: #000000; stroke-width: 0.8"/>
      </g>
     </g>
     <g id="text_2">
      <text style="font: 7px 'Arial'; text-anchor: middle" x="119.369574" y="336.701469" transform="rotate(-0 119.369574 336.701469)">500</text>
     </g>
    </g>
    <g id="xtick_3">
     <g id="line2d_5">
      <path d="M 179.369717 324.691 
L 179.369717 29.382 
" clip-path="url(#p840652d106)" style="fill: none; stroke: #b0b0b0; stroke-opacity: 0.3; stroke-width: 0.8; stroke-linecap: square"/>
     </g>
     <g id="line2d_6">
      <g>
       <use xlink:href="#me2e944a599" x="179.369717" y="324.691" style="stroke: #000000; stroke-width: 0.8"/>
      </g>
     </g>
     <g id="text_3">
      <text style="font: 7px 'Arial'; text-anchor: middle" x="179.369717" y="336.701469" transform="rotate(-0 179.369717 336.701469)">1000</text>
     </g>
    </g>
    <g id="xtick_4">
     <g id="line2d_7">
      <path d="M 239.36986 324.691 
L 239.36986 29.382 
" clip-path="url(#p840652d106)" style="fill: none; stroke: #b0b0b0; stroke-opacity: 0.3; stroke-width: 0.8; stroke-linecap: square"/>
     </g>
     <g id="line2d_8">
      <g>
       <use xlink:href="#me2e944a599" x="239.36986" y="324.691" style="stroke: #000000; stroke-width: 0.8"/>
      </g>
     </g>
     <g id="text_4">
      <text style="font: 7px 'Arial'; text-anchor: middle" x="239.36986" y="336.701469" transform="rotate(-0 239.36986 336.701469)">1500</text>
     </g>
    </g>
    <g id="xtick_5">
     <g id="line2d_9">
      <path d="M 299.370002 324.691 
L 299.370002 29.382 
" clip-path="url(#p840652d106)" style="fill: none; stroke: #b0b0b0; stroke-opacity: 0.3; stroke-width: 0.8; stroke-linecap: square"/>
     </g>
     <g id="line2d_10">
      <g>
       <use xlink:href="#me2e944a599" x="299.370002" y="324.691" style="stroke: #000000; stroke-width: 0.8"/>
      </g>
     </g>
     <g id="text_5">
      <text style="font: 7px 'Arial'; text-anchor: middle" x="299.370002" y="336.701469" transform="rotate(-0 299.370002 336.701469)">2000</text>
     </g>
    </g>
    <g id="xtick_6">
     <g id="line2d_11">
      <path d="M 359.370145 324.691 
L 359.370145 29.382 
" clip-path="url(#p840652d106)" style="fill: none; stroke: #b0b0b0; stroke-opacity: 0.3; stroke-width: 0.8; stroke-linecap: square"/>
     </g>
     <g id="line2d_12">
      <g>
       <use xlink:href="#me2e944a599" x="359.370145" y="324.691" style="stroke: #000000; stroke-width: 0.8"/>
      </g>
     </g>
     <g id="text_6">
      <text style="font: 7px 'Arial'; text-anchor: middle" x="359.370145" y="336.701469" transform="rotate(-0 359.370145 336.701469)">2500</text>
     </g>
    </g>
    <g id="xtick_7">
     <g id="line2d_13">
      <path d="M 419.370287 324.691 
L 419.370287 29.382 
" clip-path="url(#p840652d106)" style="fill: none; stroke: #b0b0b0; stroke-opacity: 0.3; stroke-width: 0.8; stroke-linecap: square"/>
     </g>
     <g id="line2d_14">
      <g>
       <use xlink:href="#me2e944a599" x="419.370287" y="324.691" style="stroke: #000000; stroke-width: 0.8"/>
      </g>
     </g>
     <g id="text_7">
      <text style="font: 7px 'Arial'; text-anchor: middle" x="419.370287" y="336.701469" transform="rotate(-0 419.370287 336.701469)">3000</text>
     </g>
    </g>
    <g id="xtick_8">
     <g id="line2d_15">
      <path d="M 479.37043 324.691 
L 479.37043 29.382 
" clip-path="url(#p840652d106)" style="fill: none; stroke: #b0b0b0; stroke-opacity: 0.3; stroke-width: 0.8; stroke-linecap: square"/>
     </g>
     <g id="line2d_16">
      <g>
       <use xlink:href="#me2e944a599" x="479.37043" y="324.691" style="stroke: #000000; stroke-width: 0.8"/>
      </g>
     </g>
     <g id="text_8">
      <text style="font: 7px 'Arial'; text-anchor: middle" x="479.37043" y="336.701469" transform="rotate(-0 479.37043 336.701469)">3500</text>
     </g>
    </g>
    <g id="xtick_9">
     <g id="line2d_17">
      <path d="M 539.370572 324.691 
L 539.370572 29.382 
" clip-path="url(#p840652d106)" style="fill: none; stroke: #b0b0b0; stroke-opacity: 0.3; stroke-width: 0.8; stroke-linecap: square"/>
     </g>
     <g id="line2d_18">
      <g>
       <use xlink:href="#me2e944a599" x="539.370572" y="324.691" style="stroke: #000000; stroke-width: 0.8"/>
      </g>
     </g>
     <g id="text_9">
      <text style="font: 7px 'Arial'; text-anchor: middle" x="539.370572" y="336.701469" transform="rotate(-0 539.370572 336.701469)">4000</text>
     </g>
    </g>
    <g id="text_10">
     <text style="font: 8px 'Arial'; text-anchor: middle" x="300.60125" y="347.916469" transform="rotate(-0 300.60125 347.916469)">Time from start (ms)</text>
    </g>
   </g>
   <g id="matplotlib.axis_2">
    <g id="ytick_1">
     <g id="line2d_19">
      <path d="M 35.24625 311.267864 
L 565.95625 311.267864 
" clip-path="url(#p840652d106)" style="fill: none; stroke: #b0b0b0; stroke-opacity: 0.3; stroke-width: 0.8; stroke-linecap: square"/>
     </g>
     <g id="line2d_20">
      <defs>
       <path id="m1dbcfce48d" d="M 0 0 
L -3.5 0 
" style="stroke: #000000; stroke-width: 0.8"/>
      </defs>
      <g>
       <use xlink:href="#m1dbcfce48d" x="35.24625" y="311.267864" style="stroke: #000000; stroke-width: 0.8"/>
      </g>
     </g>
     <g id="text_11">
      <text style="font: 7px 'Arial'; text-anchor: end" x="28.24625" y="313.773098" transform="rotate(-0 28.24625 313.773098)">0.2</text>
     </g>
    </g>
    <g id="ytick_2">
     <g id="line2d_21">
      <path d="M 35.24625 262.92332 
L 565.95625 262.92332 
" clip-path="url(#p840652d106)" style="fill: none; stroke: #b0b0b0; stroke-opacity: 0.3; stroke-width: 0.8; stroke-linecap: square"/>
     </g>
     <g id="line2d_22">
      <g>
       <use xlink:href="#m1dbcfce48d" x="35.24625" y="262.92332" style="stroke: #000000; stroke-width: 0.8"/>
      </g>
     </g>
     <g id="text_12">
      <text style="font: 7px 'Arial'; text-anchor: end" x="28.24625" y="265.428555" transform="rotate(-0 28.24625 265.428555)">0.3</text>
     </g>
    </g>
    <g id="ytick_3">
     <g id="line2d_23">
      <path d="M 35.24625 214.578777 
L 565.95625 214.578777 
" clip-path="url(#p840652d106)" style="fill: none; stroke: #b0b0b0; stroke-opacity: 0.3; stroke-width: 0.8; stroke-linecap: square"/>
     </g>
     <g id="line2d_24">
      <g>
       <use xlink:href="#m1dbcfce48d" x="35.24625" y="214.578777" style="stroke: #000000; stroke-width: 0.8"/>
      </g>
     </g>
     <g id="text_13">
      <text style="font: 7px 'Arial'; text-anchor: end" x="28.24625" y="217.084012" transform="rotate(-0 28.24625 217.084012)">0.4</text>
     </g>
    </g>
    <g id="ytick_4">
     <g id="line2d_25">
      <path d="M 35.24625 166.234234 
L 565.95625 166.234234 
" clip-path="url(#p840652d106)" style="fill: none; stroke: #b0b0b0; stroke-opacity: 0.3; stroke-width: 0.8; stroke-linecap: square"/>
     </g>
     <g id="line2d_26">
      <g>
       <use xlink:href="#m1dbcfce48d" x="35.24625" y="166.234234" style="stroke: #000000; stroke-width: 0.8"/>
      </g>
     </g>
     <g id="text_14">
      <text style="font: 7px 'Arial'; text-anchor: end" x="28.24625" y="168.739468" transform="rotate(-0 28.24625 168.739468)">0.5</text>
     </g>
    </g>
    <g id="ytick_5">
     <g id="line2d_27">
      <path d="M 35.24625 117.889691 
L 565.95625 117.889691 
" clip-path="url(#p840652d106)" style="fill: none; stroke: #b0b0b0; stroke-opacity: 0.3; stroke-width: 0.8; stroke-linecap: square"/>
     </g>
     <g id="line2d_28">
      <g>
       <use xlink:href="#m1dbcfce48d" x="35.24625" y="117.889691" style="stroke: #000000; stroke-width: 0.8"/>
      </g>
     </g>
     <g id="text_15">
      <text style="font: 7px 'Arial'; text-anchor: end" x="28.24625" y="120.394925" transform="rotate(-0 28.24625 120.394925)">0.6</text>
     </g>
    </g>
    <g id="ytick_6">
     <g id="line2d_29">
      <path d="M 35.24625 69.545148 
L 565.95625 69.545148 
" clip-path="url(#p840652d106)" style="fill: none; stroke: #b0b0b0; stroke-opacity: 0.3; stroke-width: 0.8; stroke-linecap: square"/>
     </g>
     <g id="line2d_30">
      <g>
       <use xlink:href="#m1dbcfce48d" x="35.24625" y="69.545148" style="stroke: #000000; stroke-width: 0.8"/>
      </g>
     </g>
     <g id="text_16">
      <text style="font: 7px 'Arial'; text-anchor: end" x="28.24625" y="72.050382" transform="rotate(-0 28.24625 72.050382)">0.7</text>
     </g>
    </g>
    <g id="text_17">
     <text style="font: 8px 'Arial'; text-anchor: middle" x="12.92625" y="177.0365" transform="rotate(-90 12.92625 177.0365)">Prior Confidence Index</text>
    </g>
   </g>
   <g id="line2d_31">
    <path d="M 59.369432 311.267864 
L 80.346112 278.296996 
L 101.322792 230.015432 
L 122.299471 247.984042 
L 143.276151 251.310746 
L 164.252831 238.453833 
L 185.229511 203.308427 
L 206.206191 233.68582 
L 227.182871 214.347747 
L 248.15955 219.704875 
L 269.13623 193.077216 
L 290.11291 169.447651 
L 311.08959 146.744852 
L 332.06627 120.886933 
L 353.04295 112.175679 
L 374.019629 138.592718 
L 394.996309 117.240196 
L 415.972989 111.174698 
L 436.949669 94.698949 
L 457.926349 99.048547 
L 478.903029 99.871178 
L 499.879708 107.059629 
L 520.856388 113.726015 
L 541.833068 97.386305 
" clip-path="url(#p840652d106)" style="fill: none; stroke: #1f77b4; stroke-width: 2.5; stroke-linecap: square"/>
   </g>
   <g id="line2d_32">
    <path d="M 290.165665 324.691 
L 290.165665 29.382 
" clip-path="url(#p840652d106)" style="fill: none; stroke: #9467bd; stroke-width: 2; stroke-linecap: square"/>
   </g>
   <g id="patch_3">
    <path d="M 35.24625 324.691 
L 35.24625 29.382 
" style="fill: none; stroke: #000000; stroke-width: 0.8; stroke-linejoin: miter; stroke-linecap: square"/>
   </g>
   <g id="patch_4">
    <path d="M 565.95625 324.691 
L 565.95625 29.382 
" style="fill: none; stroke: #000000; stroke-width: 0.8; stroke-linejoin: miter; stroke-linecap: square"/>
   </g>
   <g id="patch_5">
    <path d="M 35.24625 324.691 
L 565.95625 324.691 
" style="fill: none; stroke: #000000; stroke-width: 0.8; stroke-linejoin: miter; stroke-linecap: square"/>
   </g>
   <g id="patch_6">
    <path d="M 35.24625 29.382 
L 565.95625 29.382 
" style="fill: none; stroke: #000000; stroke-width: 0.8; stroke-linejoin: miter; stroke-linecap: square"/>
   </g>
   <g id="text_18">
    <text style="font: 9px 'Arial'" transform="translate(253.078438 13.757344)">Monkey 2 – AI Obstacle</text>
    <text style="font: 9px 'Arial'" transform="translate(253.747109 23.382)">α vs time from trial start</text>
   </g>
   <g id="legend_1">
    <g id="patch_7">
     <path d="M 416.812188 74.9895 
L 559.65625 74.9895 
Q 561.45625 74.9895 561.45625 73.1895 
L 561.45625 35.682 
Q 561.45625 33.882 559.65625 33.882 
L 416.812188 33.882 
Q 415.012188 33.882 415.012188 35.682 
L 415.012188 73.1895 
Q 415.012188 74.9895 416.812188 74.9895 
z
" style="fill: #ffffff; opacity: 0.8; stroke: #cccccc; stroke-linejoin: miter"/>
    </g>
    <g id="patch_8">
     <path d="M 418.612188 43.924031 
L 436.612188 43.924031 
L 436.612188 37.624031 
L 418.612188 37.624031 
z
" style="fill: #1f77b4; fill-opacity: 0.25"/>
    </g>
    <g id="text_19">
     <text style="font: 9px 'Arial'; text-anchor: start" x="443.812188" y="43.924031" transform="rotate(-0 443.812188 43.924031)">Across-trials 95% CI</text>
    </g>
    <g id="line2d_33">
     <path d="M 418.612188 53.504812 
L 427.612188 53.504812 
L 436.612188 53.504812 
" style="fill: none; stroke: #1f77b4; stroke-width: 2.5; stroke-linecap: square"/>
    </g>
    <g id="text_20">
     <text style="font: 9px 'Arial'; text-anchor: start" x="443.812188" y="56.654812" transform="rotate(-0 443.812188 56.654812)">Across-trials mean</text>
    </g>
    <g id="line2d_34">
     <path d="M 418.612188 66.345281 
L 427.612188 66.345281 
L 436.612188 66.345281 
" style="fill: none; stroke: #9467bd; stroke-width: 2; stroke-linecap: square"/>
    </g>
    <g id="text_21">
     <text style="font: 9px 'Arial'; text-anchor: start" x="443.812188" y="69.495281" transform="rotate(-0 443.812188 69.495281)">Closest to obstacle (median)</text>
    </g>
   </g>
  </g>
 </g>
 <defs>
  <clipPath id="p840652d106">
   <rect x="35.24625" y="29.382" width="530.71" height="295.309"/>
  </clipPath>
 </defs>
</svg>
